<svg width="64" height="64" viewBox="0 0 64 64" fill="none" xmlns="http://www.w3.org/2000/svg">
  <rect width="64" height="64" rx="20" fill="#0A1836"/>
  <path d="M13 18C13 12.4772 17.4772 8 23 8H40C45.5228 8 50 12.4772 50 18V34C50 39.5228 45.5228 44 40 44H31L20 54V44H23C17.4772 44 13 39.5228 13 34V18Z" stroke="#EEF4FB" stroke-width="3" stroke-linejoin="round"/>
  <path d="M21 23.5C24.75 21.1875 28.65 20.625 33 22V35.75C28.95 34.3125 25.0875 34.4375 21 36.5V23.5Z" fill="#74D3DF"/>
  <path d="M42 23.5C38.25 21.1875 34.35 20.625 30 22V35.75C34.05 34.3125 37.9125 34.4375 42 36.5V23.5Z" fill="#FF9B5D"/>
  <path d="M30.5 21.75V35.75" stroke="#0A1836" stroke-width="1.8" stroke-linecap="round"/>
  <path d="M38 14.5C43.25 13 48.875 16 51 21.625" stroke="#74D3DF" stroke-width="2" stroke-linecap="round"/>
  <circle cx="51.5" cy="21.5" r="2.5" fill="#EEF4FB"/>
</svg>
